 <svg
      xmlns="http://www.w3.org/2000/svg"
      fillRule="evenodd"
      strokeLinecap="round"
      strokeLinejoin="round"
      strokeMiterlimit="1.5"
      clipRule="evenodd"
      viewBox="0 0 432 192"
    >
      <path
        fill="#fff"
        stroke="#000"
        strokeWidth="4.55"
        d="M429.901 48.967c0-25.864-20.998-46.862-46.862-46.862H48.766c-25.864 0-46.862 20.998-46.862 46.862v93.725c0 25.863 20.998 46.862 46.862 46.862h334.273c25.864 0 46.862-20.999 46.862-46.862V48.967z"
      ></path>
      <path d="M317.525 41.712c3.09 1.575 4.91 5.746 4.064 9.316l-21.446 90.49c-.846 3.569-4.038 5.186-7.129 3.611-3.09-1.576-4.91-5.747-4.064-9.317l21.446-90.489c.846-3.57 4.037-5.187 7.129-3.611z"></path>
      <clipPath id="_clip1">
        <path d="M334.476 46.069H413.823V148.466H334.476z"></path>
      </clipPath>
      <g clipPath="url(#_clip1)">
        <path
          fillRule="nonzero"
          d="M341.095 135.666c-2.428 0-4.763-1.294-5.922-3.538-1.634-3.162-.31-7.006 2.957-8.588l54.303-26.279-54.301-26.273c-3.268-1.58-4.592-5.418-2.958-8.58 1.63-3.162 5.591-4.438 8.873-2.862l66.122 31.999c2.249 1.082 3.654 3.302 3.654 5.722 0 2.424-1.414 4.638-3.655 5.726l-66.122 31.999a6.838 6.838 0 01-2.951.674z"
        ></path>
      </g>
      <path
        fillRule="nonzero"
        d="M242.921 52.371c-11.738 0-22.768 3.903-31.055 10.994l-21.884 18.701-21.853-18.703c-8.296-7.091-19.323-10.995-31.055-10.995-24.241.003-43.949 16.841-43.949 37.537v7.696c0 20.703 19.708 37.536 43.919 37.536 11.738 0 22.767-3.903 31.055-10.994l21.883-18.665 21.863 18.691c8.296 7.09 19.323 10.994 31.055 10.994 24.235-.013 43.94-16.854 43.94-37.549v-7.697c0-20.708-19.705-37.546-43.919-37.546zm-88.503 60.092c-4.634 3.96-10.803 6.144-17.368 6.144-13.536-.013-24.553-9.43-24.553-20.993v-7.697c0-11.568 11.02-20.987 24.559-20.987 6.565 0 12.731 2.182 17.368 6.144l21.862 18.69-21.868 18.699zm113.05-14.849c0 11.568-11.02 20.987-24.559 20.987-6.565 0-12.731-2.182-17.368-6.144l-21.862-18.69 21.862-18.691c4.634-3.96 10.803-6.144 17.368-6.144 13.542-.008 24.559 9.409 24.559 20.973v7.709z"
      ></path>
      <clipPath id="_clip2">
        <path d="M17.448 46.069H96.79499999999999V148.466H17.448z"></path>
      </clipPath>
      <g clipPath="url(#_clip2)">
        <path
          fillRule="nonzero"
          d="M89.996 135.666a6.814 6.814 0 01-2.951-.675l-66.122-31.999c-2.061-1.085-3.475-3.305-3.475-5.725 0-2.426 1.414-4.636 3.655-5.724l66.122-31.999c3.281-1.575 7.242-.3 8.873 2.862 1.633 3.162.31 7.006-2.957 8.588L38.834 97.267l54.303 26.279c3.267 1.581 4.591 5.424 2.957 8.588-1.16 2.232-3.494 3.532-6.098 3.532z"
        ></path>
      </g>
    </svg>